# xmcd
#
# Track frame offsets: 
#        150
#        14214
#        32082
#        48058
#        58481
#        73201
#        88942
#        106343
#        131310
#        157122
#        174607
#        188339
#
# Disc length: 2853 seconds
#
# Revision: 0
# Processed by: cddbd v1.5.1PL0 Copyright (c) Steve Scherf et al.
# Submitted via: ExactAudioCopy v0.95a5
#
DISCID=a80b230c
DTITLE=Accident Clearinghouse - Full Moon Night
DYEAR=2002
DGENRE=Rock
TTITLE0=The Prize
TTITLE1=Overnight
TTITLE2=Let's Do It Together
TTITLE3=That's The Way It Had To Go
TTITLE4=Bird On The Wing
TTITLE5=Scary Slumber
TTITLE6=That Man Of Mine
TTITLE7=All For Show
TTITLE8=New Clothes
TTITLE9=Firecracker Ring
TTITLE10=Cold Thin Air
TTITLE11=The Last Great Saturday
EXTD=
EXTT0=
EXTT1=
EXTT2=
EXTT3=
EXTT4=
EXTT5=
EXTT6=
EXTT7=
EXTT8=
EXTT9=
EXTT10=
EXTT11=
PLAYORDER=
